<?xml version="1.0" standalone="no"?><!DOCTYPE svg PUBLIC "-//W3C//DTD SVG 1.1//EN" "http://www.w3.org/Graphics/SVG/1.1/DTD/svg11.dtd"><svg t="1648978953524" class="icon" viewBox="0 0 1024 1024" version="1.1" xmlns="http://www.w3.org/2000/svg" p-id="2405" xmlns:xlink="http://www.w3.org/1999/xlink" width="200" height="200"><defs><style type="text/css">@font-face { font-family: feedback-iconfont; src: url("//at.alicdn.com/t/font_1031158_u69w8yhxdu.woff2?t=1630033759944") format("woff2"), url("//at.alicdn.com/t/font_1031158_u69w8yhxdu.woff?t=1630033759944") format("woff"), url("//at.alicdn.com/t/font_1031158_u69w8yhxdu.ttf?t=1630033759944") format("truetype"); }
</style></defs><path d="M109.9 514.6a399 399 0 1 0 798 0 399 399 0 1 0-798 0Z" fill="#0091FF" p-id="2406"></path><path d="M597.6 401.9h99.8c27.6 0 49.9 22.3 49.9 49.9v232.8c0 27.6-22.3 49.9-49.9 49.9h-99.8c-27.6 0-49.9-22.3-49.9-49.9V451.8c0-27.6 22.3-49.9 49.9-49.9z" fill="#1452F1" p-id="2407"></path><path d="M327.9 281.2H565c27.6 0 49.9 22.3 49.9 49.9l-2.5 365.8c12.3 28.3 25.7 49.9-1.8 49.9H327.9c-27.6 0-49.9-22.3-49.9-49.9V331.1c0-27.6 22.3-49.9 49.9-49.9z" fill="#2CD5FF" p-id="2408"></path><path d="M681.3 749.2L483 746.7V608.8l135.5 72.6z" fill="#2CD5FF" p-id="2409"></path><path d="M679.8 614.3c37.2 0 67.4 30.2 67.4 67.4s-30.2 67.5-67.4 67.5-67.5-30.2-67.5-67.5c0.1-37.2 30.2-67.4 67.5-67.4z" fill="#1452F1" p-id="2410"></path><path d="M232.2 716c42.2 0 76.5 34.2 76.5 76.5 0 42.2 88.2-45.9 45.9-45.9-42.2 0-76.5-34.2-76.5-76.5 0-42.2-88.1 45.9-45.9 45.9z" fill="#0091FF" p-id="2411"></path></svg>